<svg width="60" height="60" xmlns="http://www.w3.org/2000/svg" version="1.1">

 <g>
  <title>Layer 1</title>
  <g stroke="null" id="svg_1" fill="#fff" stroke-width="2">
   <path stroke="#8996d2" id="svg_2" d="m48.31545,27.36154c1.98304,-0.1904 4.09985,-1.3504 4.77954,-3.072c0.75019,-1.8992 0.42481,-3.8528 -0.97073,-5.4528q-0.89662,-1.0272 -1.77877,-1.5296q-1.77335,-1.0112 -4.40535,-1.184q-0.28019,-0.0176 -0.48085,-0.0592c-0.53508,-0.1088 -1.07015,-0.7328 -1.33408,-1.1504q-1.18765,-1.8736 -3.45631,-2.7184c-0.65981,-0.2464 -1.39554,-0.24 -2.0915,-0.2736a0.47,0.416 0 0 1 -0.41035,-0.2592c-1.10992,-2.4016 -3.37677,-4.1168 -6.28354,-4.5808q-1.10812,-0.1776 -2.21081,-0.0576c-2.05173,0.224 -4.15769,0.928 -5.66169,2.2208q-2.19092,1.8832 -2.48738,4.7856q-0.07773,0.7584 0.10665,1.4976a0.14642,0.1296 0 0 1 -0.13196,0.1568q-0.98519,0.0576 -2.0445,0.1424q-1.21477,0.096 -1.99931,0.3536c-2.45485,0.8 -4.41077,2.4208 -5.14288,4.6544q-0.34527,1.0512 -0.12473,2.4688c0.05965,0.3856 0.28923,0.6896 0.47,1.0304c0.34708,0.6528 1.15692,1.432 1.7155,1.8512q0.85504,0.6416 1.74985,0.9456q0.67427,0.2288 1.41181,0.448q0.77369,0.2304 1.58173,0.336q1.47688,0.192 3.02427,0.2464c0.20065,0.008 0.36877,0.0608 0.56219,0.0992a0.18258,0.1616 0 0 1 0.13919,0.1904q-2.53981,10.8912 -4.76146,21.488c-0.15546,0.7408 0.23681,1.504 1.13162,1.6688c0.78996,0.1456 1.65404,-0.1888 1.90531,-0.9088q0.12292,-0.352 0.19342,-0.704q0.28019,-1.3872 0.5875,-2.76a0.2585,0.2272 5.7 0 1 0.25308,-0.1824l18.65177,0a0.26935,0.2384 0 0 1 0.26573,0.1968q0.26754,1.3088 0.611,2.688q0.07592,0.304 0.16088,0.5872c0.23681,0.7968 1.40096,1.2464 2.22346,0.8336c0.376,-0.1888 0.49892,-0.496 1.00508,-0.3856c0.59473,0.1296 0.97254,-0.2352 0.86588,-0.7456q-0.26212,-1.2528 -0.55858,-2.5024q-2.16381,-9.1024 -4.36377,-18.2432q-0.14281,-0.5936 -0.25669,-1.1648a0.29646,0.2624 0 0 1 0.26031,-0.3072q1.59438,-0.1584 3.16888,-0.1904c1.07558,-0.0208 2.18008,-0.2464 3.29723,-0.3056c0.28381,-0.0144 0.55677,-0.1248 0.83335,-0.152" vector-effect="non-scaling-stroke"/>
   <path stroke="#8996d2" id="svg_3" d="m42.35187,26.89114q1.12258,-0.1376 2.39158,-0.1952c1.05388,-0.0496 2.09873,-0.2528 3.20504,-0.2864c0.29646,-0.0096 0.56762,-0.1504 0.85865,-0.216c1.21296,-0.2736 2.20358,-1.0672 2.72962,-2.0544c0.88577,-1.664 0.21331,-3.4064 -1.32323,-4.6064q-1.19127,-0.9296 -2.97546,-1.3472q-1.68838,-0.3952 -3.53946,-0.4208a0.29646,0.2608 63 0 1 -0.1645,-0.048q-0.27658,-0.1728 -0.33442,-0.4864c-0.36515,-2.0016 -2.21623,-3.4448 -4.44873,-3.816q-0.68873,-0.1136 -1.50219,0a0.45012,0.3984 0 0 1 -0.46458,-0.2032c-0.23319,-0.384 -0.30731,-0.7872 -0.53688,-1.1776q-0.82792,-1.408 -2.39158,-2.4416c-0.90023,-0.5952 -1.91435,-0.9168 -3.04054,-1.1056c-2.45485,-0.4128 -4.90608,0.2976 -6.51311,2.0032c-1.20573,1.2816 -1.99208,3.4288 -1.43892,5.128q0.13919,0.4256 0.13919,0.8512a0.41396,0.3664 0 0 1 -0.46277,0.3632q-2.89592,-0.3056 -5.33811,0.5808q-2.59946,0.9456 -3.64973,3.4224q-0.42662,1.0032 -0.28381,1.8608q0.13015,0.7984 0.85142,1.7344c0.33081,0.4288 0.95988,0.984 1.46242,1.2528q2.28673,1.2208 4.68373,1.36c0.92373,0.0528 1.85108,0.1872 2.76577,0.144q0.09942,-0.0048 0.12654,-0.088q0.29104,-0.9312 0.46819,-1.8016c0.08677,-0.4288 0.34527,-0.704 0.81888,-0.7648q1.25454,-0.1584 2.20719,0.2944q0.06508,0.032 0.09942,0.0912c0.23138,0.4096 -0.10304,1.4784 -0.2585,1.968q-0.10485,0.328 0.28019,0.3312q4.50838,0.04 9.49038,-0.0384a0.30188,0.2672 0 0 0 0.29285,-0.304q-0.11027,-0.7008 -0.24585,-1.3776c-0.17535,-0.8816 1.45881,-1.2336 2.15115,-1.1888q0.30188,0.0192 1.23285,0.528c0.15727,0.0864 0.23862,0.2416 0.28381,0.392q0.22054,0.736 0.36335,1.52a0.28562,0.2528 0 0 0 0.26935,0.2128q0.87492,0.0352 1.74081,-0.0704" vector-effect="non-scaling-stroke"/>
   <path stroke="#8996d2" id="svg_4" d="m38.79434,31.91834q1.81131,8.3792 3.81604,16.928q0.05965,0.256 0.10123,0.512q0.11027,0.6768 0.29465,1.0224q0.10665,0.2 0.33081,0.1008l0.11208,-0.0512a0.51881,0.4576 -19.2 0 0 0.27658,-0.504q-2.29396,-9.7664 -4.324,-19.024q-0.03796,-0.1648 -0.08315,-0.4928c-0.05965,-0.4192 -0.21692,-0.9616 -0.26935,-1.2256q-0.32719,-1.6592 -0.71765,-3.6016q-0.05242,-0.2592 -0.34346,-0.2q-0.10123,0.0192 -0.19885,0.0544q-0.28381,0.0992 -0.23319,0.368q0.59292,3.1264 1.23827,6.1136" vector-effect="non-scaling-stroke"/>
   <path stroke="#8996d2" id="svg_5" d="m22.47811,39.09434q1.40638,-6.456 3.06765,-13.216q0.06508,-0.2656 -0.235,-0.3216q-0.13015,-0.0256 -0.26573,-0.016q-0.30008,0.0192 -0.36335,0.2784q-1.52388,6.1904 -2.86158,12.2416q-1.3865,6.272 -2.59223,11.9936q-0.05965,0.2816 0.16269,0.4896q0.06688,0.0624 0.14823,0.0672q0.41758,0.0256 0.49712,-0.3376q1.23646,-5.64 2.44219,-11.1792" vector-effect="non-scaling-stroke"/>
   <path stroke="#8996d2" id="svg_6" d="m36.89445,28.45274a0.38323,0.3392 0 0 0 -0.37058,-0.2784c-1.22923,-0.0208 -2.47473,0.0976 -3.68769,0.0976q-3.23577,0 -6.53119,0.0016a0.16631,0.1456 -83.7 0 0 -0.16088,0.1152l-0.70319,2.8672q-0.04881,0.1984 0.18258,0.1984l11.71204,0a0.14823,0.1296 85 0 0 0.14462,-0.1536l-0.58569,-2.848" vector-effect="non-scaling-stroke"/>
   <path stroke="#8996d2" id="svg_7" d="m25.32341,32.51834a0.20427,0.1808 0 0 0 -0.20065,0.1456l-1.32865,5.8544a0.20427,0.1808 0 0 0 0.20065,0.216l14.86646,0.0032a0.20427,0.1808 0 0 0 0.19885,-0.216l-1.29973,-5.856a0.20427,0.1808 0 0 0 -0.20065,-0.1456l-12.23627,-0.0016" vector-effect="non-scaling-stroke"/>
   <path stroke="#8996d2" id="svg_8" d="m40.47007,45.97594a0.22777,0.2016 0 0 0 0.22415,-0.2416l-1.30335,-5.7616a0.22777,0.2016 0 0 0 -0.22235,-0.1616l-15.47023,0.0016a0.22777,0.2016 0 0 0 -0.22415,0.1632l-1.25273,5.7632a0.22777,0.2016 0 0 0 0.22415,0.24l18.0245,-0.0032" vector-effect="non-scaling-stroke"/>
  </g>
  <path stroke="null" id="svg_9" d="m8.22807,5.01754l46.99999,0l0,48l-46.99999,0l0,-48zm39.00276,22.184c1.98304,-0.1904 4.09985,-1.3504 4.77954,-3.072c0.75019,-1.8992 0.42481,-3.8528 -0.97073,-5.4528q-0.89662,-1.0272 -1.77877,-1.5296q-1.77335,-1.0112 -4.40535,-1.184q-0.28019,-0.0176 -0.48085,-0.0592c-0.53508,-0.1088 -1.07015,-0.7328 -1.33408,-1.1504q-1.18765,-1.8736 -3.45631,-2.7184c-0.65981,-0.2464 -1.39554,-0.24 -2.0915,-0.2736a0.47,0.416 0 0 1 -0.41035,-0.2592c-1.10992,-2.4016 -3.37677,-4.1168 -6.28354,-4.5808q-1.10812,-0.1776 -2.21081,-0.0576c-2.05173,0.224 -4.15769,0.928 -5.66169,2.2208q-2.19092,1.8832 -2.48738,4.7856q-0.07773,0.7584 0.10665,1.4976a0.14642,0.1296 0 0 1 -0.13196,0.1568q-0.98519,0.0576 -2.0445,0.1424q-1.21477,0.096 -1.99931,0.3536c-2.45485,0.8 -4.41077,2.4208 -5.14288,4.6544q-0.34527,1.0512 -0.12473,2.4688c0.05965,0.3856 0.28923,0.6896 0.47,1.0304c0.34708,0.6528 1.15692,1.432 1.7155,1.8512q0.85504,0.6416 1.74985,0.9456q0.67427,0.2288 1.41181,0.448q0.77369,0.2304 1.58173,0.336q1.47688,0.192 3.02427,0.2464c0.20065,0.008 0.36877,0.0608 0.56219,0.0992a0.18258,0.1616 0 0 1 0.13919,0.1904q-2.53981,10.8912 -4.76146,21.488c-0.15546,0.7408 0.23681,1.504 1.13162,1.6688c0.78996,0.1456 1.65404,-0.1888 1.90531,-0.9088q0.12292,-0.352 0.19342,-0.704q0.28019,-1.3872 0.5875,-2.76a0.2585,0.2272 5.7 0 1 0.25308,-0.1824l18.65177,0a0.26935,0.2384 0 0 1 0.26573,0.1968q0.26754,1.3088 0.611,2.688q0.07592,0.304 0.16088,0.5872c0.23681,0.7968 1.40096,1.2464 2.22346,0.8336c0.376,-0.1888 0.49892,-0.496 1.00508,-0.3856c0.59473,0.1296 0.97254,-0.2352 0.86588,-0.7456q-0.26212,-1.2528 -0.55858,-2.5024q-2.16381,-9.1024 -4.36377,-18.2432q-0.14281,-0.5936 -0.25669,-1.1648a0.29646,0.2624 0 0 1 0.26031,-0.3072q1.59438,-0.1584 3.16888,-0.1904c1.07558,-0.0208 2.18008,-0.2464 3.29723,-0.3056c0.28381,-0.0144 0.55677,-0.1248 0.83335,-0.152z" fill="#ffffff"/>
  <g stroke="null" id="svg_20">
   <path stroke="null" id="svg_10" d="m48.31545,27.36154c-0.27658,0.0272 -0.54954,0.1376 -0.83335,0.152c-1.11715,0.0592 -2.22165,0.2848 -3.29723,0.3056q-1.5745,0.032 -3.16888,0.1904a0.29646,0.2624 0 0 0 -0.26031,0.3072q0.11388,0.5712 0.25669,1.1648q2.19996,9.1408 4.36377,18.2432q0.29646,1.2496 0.55858,2.5024c0.10665,0.5104 -0.27115,0.8752 -0.86588,0.7456c-0.50615,-0.1104 -0.62908,0.1968 -1.00508,0.3856c-0.8225,0.4128 -1.98665,-0.0368 -2.22346,-0.8336q-0.08496,-0.2832 -0.16088,-0.5872q-0.34346,-1.3792 -0.611,-2.688a0.26935,0.2384 0 0 0 -0.26573,-0.1968l-18.65177,0a0.2585,0.2272 5.7 0 0 -0.25308,0.1824q-0.30731,1.3728 -0.5875,2.76q-0.0705,0.352 -0.19342,0.704c-0.25127,0.72 -1.11535,1.0544 -1.90531,0.9088c-0.89481,-0.1648 -1.28708,-0.928 -1.13162,-1.6688q2.22165,-10.5968 4.76146,-21.488a0.18258,0.1616 0 0 0 -0.13919,-0.1904c-0.19342,-0.0384 -0.36154,-0.0912 -0.56219,-0.0992q-1.54738,-0.0544 -3.02427,-0.2464q-0.80804,-0.1056 -1.58173,-0.336q-0.73754,-0.2192 -1.41181,-0.448q-0.89481,-0.304 -1.74985,-0.9456c-0.55858,-0.4192 -1.36842,-1.1984 -1.7155,-1.8512c-0.18077,-0.3408 -0.41035,-0.6448 -0.47,-1.0304q-0.22054,-1.4176 0.12473,-2.4688c0.73212,-2.2336 2.68804,-3.8544 5.14288,-4.6544q0.78454,-0.2576 1.99931,-0.3536q1.05931,-0.0848 2.0445,-0.1424a0.14642,0.1296 0 0 0 0.13196,-0.1568q-0.18438,-0.7392 -0.10665,-1.4976q0.29646,-2.9024 2.48738,-4.7856c1.504,-1.2928 3.60996,-1.9968 5.66169,-2.2208q1.10269,-0.12 2.21081,0.0576c2.90677,0.464 5.17361,2.1792 6.28354,4.5808a0.47,0.416 0 0 0 0.41035,0.2592c0.69596,0.0336 1.43169,0.0272 2.0915,0.2736q2.26865,0.8448 3.45631,2.7184c0.26392,0.4176 0.799,1.0416 1.33408,1.1504q0.20065,0.0416 0.48085,0.0592q2.632,0.1728 4.40535,1.184q0.88215,0.5024 1.77877,1.5296c1.39554,1.6 1.72092,3.5536 0.97073,5.4528c-0.67969,1.7216 -2.7965,2.8816 -4.77954,3.072zm-5.96358,-0.4704q1.12258,-0.1376 2.39158,-0.1952c1.05388,-0.0496 2.09873,-0.2528 3.20504,-0.2864c0.29646,-0.0096 0.56762,-0.1504 0.85865,-0.216c1.21296,-0.2736 2.20358,-1.0672 2.72962,-2.0544c0.88577,-1.664 0.21331,-3.4064 -1.32323,-4.6064q-1.19127,-0.9296 -2.97546,-1.3472q-1.68838,-0.3952 -3.53946,-0.4208a0.29646,0.2608 63 0 1 -0.1645,-0.048q-0.27658,-0.1728 -0.33442,-0.4864c-0.36515,-2.0016 -2.21623,-3.4448 -4.44873,-3.816q-0.68873,-0.1136 -1.50219,0a0.45012,0.3984 0 0 1 -0.46458,-0.2032c-0.23319,-0.384 -0.30731,-0.7872 -0.53688,-1.1776q-0.82792,-1.408 -2.39158,-2.4416c-0.90023,-0.5952 -1.91435,-0.9168 -3.04054,-1.1056c-2.45485,-0.4128 -4.90608,0.2976 -6.51311,2.0032c-1.20573,1.2816 -1.99208,3.4288 -1.43892,5.128q0.13919,0.4256 0.13919,0.8512a0.41396,0.3664 0 0 1 -0.46277,0.3632q-2.89592,-0.3056 -5.33811,0.5808q-2.59946,0.9456 -3.64973,3.4224q-0.42662,1.0032 -0.28381,1.8608q0.13015,0.7984 0.85142,1.7344c0.33081,0.4288 0.95988,0.984 1.46242,1.2528q2.28673,1.2208 4.68373,1.36c0.92373,0.0528 1.85108,0.1872 2.76577,0.144q0.09942,-0.0048 0.12654,-0.088q0.29104,-0.9312 0.46819,-1.8016c0.08677,-0.4288 0.34527,-0.704 0.81888,-0.7648q1.25454,-0.1584 2.20719,0.2944q0.06508,0.032 0.09942,0.0912c0.23138,0.4096 -0.10304,1.4784 -0.2585,1.968q-0.10485,0.328 0.28019,0.3312q4.50838,0.04 9.49038,-0.0384a0.30188,0.2672 0 0 0 0.29285,-0.304q-0.11027,-0.7008 -0.24585,-1.3776c-0.17535,-0.8816 1.45881,-1.2336 2.15115,-1.1888q0.30188,0.0192 1.23285,0.528c0.15727,0.0864 0.23862,0.2416 0.28381,0.392q0.22054,0.736 0.36335,1.52a0.28562,0.2528 0 0 0 0.26935,0.2128q0.87492,0.0352 1.74081,-0.0704zm-3.55754,5.0272q1.81131,8.3792 3.81604,16.928q0.05965,0.256 0.10123,0.512q0.11027,0.6768 0.29465,1.0224q0.10665,0.2 0.33081,0.1008l0.11208,-0.0512a0.51881,0.4576 -19.2 0 0 0.27658,-0.504q-2.29396,-9.7664 -4.324,-19.024q-0.03796,-0.1648 -0.08315,-0.4928c-0.05965,-0.4192 -0.21692,-0.9616 -0.26935,-1.2256q-0.32719,-1.6592 -0.71765,-3.6016q-0.05242,-0.2592 -0.34346,-0.2q-0.10123,0.0192 -0.19885,0.0544q-0.28381,0.0992 -0.23319,0.368q0.59292,3.1264 1.23827,6.1136zm-16.31623,7.176q1.40638,-6.456 3.06765,-13.216q0.06508,-0.2656 -0.235,-0.3216q-0.13015,-0.0256 -0.26573,-0.016q-0.30008,0.0192 -0.36335,0.2784q-1.52388,6.1904 -2.86158,12.2416q-1.3865,6.272 -2.59223,11.9936q-0.05965,0.2816 0.16269,0.4896q0.06688,0.0624 0.14823,0.0672q0.41758,0.0256 0.49712,-0.3376q1.23646,-5.64 2.44219,-11.1792zm14.41634,-10.6416a0.38323,0.3392 0 0 0 -0.37058,-0.2784c-1.22923,-0.0208 -2.47473,0.0976 -3.68769,0.0976q-3.23577,0 -6.53119,0.0016a0.16631,0.1456 -83.7 0 0 -0.16088,0.1152l-0.70319,2.8672q-0.04881,0.1984 0.18258,0.1984l11.71204,0a0.14823,0.1296 85 0 0 0.14462,-0.1536l-0.58569,-2.848zm-11.57104,4.0656a0.20427,0.1808 0 0 0 -0.20065,0.1456l-1.32865,5.8544a0.20427,0.1808 0 0 0 0.20065,0.216l14.86646,0.0032a0.20427,0.1808 0 0 0 0.19885,-0.216l-1.29973,-5.856a0.20427,0.1808 0 0 0 -0.20065,-0.1456l-12.23627,-0.0016zm15.14665,13.4576a0.22777,0.2016 0 0 0 0.22415,-0.2416l-1.30335,-5.7616a0.22777,0.2016 0 0 0 -0.22235,-0.1616l-15.47023,0.0016a0.22777,0.2016 0 0 0 -0.22415,0.1632l-1.25273,5.7632a0.22777,0.2016 0 0 0 0.22415,0.24l18.0245,-0.0032z" fill="#122da4"/>
   <path stroke="null" id="svg_11" d="m42.17643,26.89114q-0.86588,0.1056 -1.74081,0.0704a0.28562,0.2528 0 0 1 -0.26935,-0.2128q-0.14281,-0.784 -0.36335,-1.52c-0.04519,-0.1504 -0.12654,-0.3056 -0.28381,-0.392q-0.93096,-0.5088 -1.23285,-0.528c-0.69235,-0.0448 -2.3265,0.3072 -2.15115,1.1888q0.13558,0.6768 0.24585,1.3776a0.30188,0.2672 0 0 1 -0.29285,0.304q-4.982,0.0784 -9.49038,0.0384q-0.38504,-0.0032 -0.28019,-0.3312c0.15546,-0.4896 0.48988,-1.5584 0.2585,-1.968q-0.03435,-0.0592 -0.09942,-0.0912q-0.95265,-0.4528 -2.20719,-0.2944c-0.47362,0.0608 -0.73212,0.336 -0.81888,0.7648q-0.17715,0.8704 -0.46819,1.8016q-0.02712,0.0832 -0.12654,0.088c-0.91469,0.0432 -1.84204,-0.0912 -2.76577,-0.144q-2.397,-0.1392 -4.68373,-1.36c-0.50254,-0.2688 -1.13162,-0.824 -1.46242,-1.2528q-0.72127,-0.936 -0.85142,-1.7344q-0.14281,-0.8576 0.28381,-1.8608q1.05027,-2.4768 3.64973,-3.4224q2.44219,-0.8864 5.33811,-0.5808a0.41396,0.3664 0 0 0 0.46277,-0.3632q0,-0.4256 -0.13919,-0.8512c-0.55315,-1.6992 0.23319,-3.8464 1.43892,-5.128c1.60704,-1.7056 4.05827,-2.416 6.51311,-2.0032c1.12619,0.1888 2.14031,0.5104 3.04054,1.1056q1.56365,1.0336 2.39158,2.4416c0.22958,0.3904 0.30369,0.7936 0.53688,1.1776a0.45012,0.3984 0 0 0 0.46458,0.2032q0.81346,-0.1136 1.50219,0c2.2325,0.3712 4.08358,1.8144 4.44873,3.816q0.05785,0.3136 0.33442,0.4864a0.29646,0.2608 63 0 0 0.1645,0.048q1.85108,0.0256 3.53946,0.4208q1.78419,0.4176 2.97546,1.3472c1.53654,1.2 2.209,2.9424 1.32323,4.6064c-0.52604,0.9872 -1.51665,1.7808 -2.72962,2.0544c-0.29104,0.0656 -0.56219,0.2064 -0.85865,0.216c-1.10631,0.0336 -2.15115,0.2368 -3.20504,0.2864q-1.269,0.0576 -2.39158,0.1952z" fill="#ffffff"/>
   <path stroke="null" id="svg_12" d="m38.79434,31.91834q-0.64535,-2.9872 -1.23827,-6.1136q-0.05062,-0.2688 0.23319,-0.368q0.09762,-0.0352 0.19885,-0.0544q0.29104,-0.0592 0.34346,0.2q0.39046,1.9424 0.71765,3.6016c0.05242,0.264 0.20969,0.8064 0.26935,1.2256q0.04519,0.328 0.08315,0.4928q2.03004,9.2576 4.324,19.024a0.51881,0.4576 -19.2 0 1 -0.27658,0.504l-0.11208,0.0512q-0.22415,0.0992 -0.33081,-0.1008q-0.18438,-0.3456 -0.29465,-1.0224q-0.04158,-0.256 -0.10123,-0.512q-2.00473,-8.5488 -3.81604,-16.928z" fill="#ffffff"/>
   <path stroke="null" id="svg_13" d="m22.47811,39.09434q-1.20573,5.5392 -2.44219,11.1792q-0.07954,0.3632 -0.49712,0.3376q-0.08135,-0.0048 -0.14823,-0.0672q-0.22235,-0.208 -0.16269,-0.4896q1.20573,-5.7216 2.59223,-11.9936q1.33769,-6.0512 2.86158,-12.2416q0.06327,-0.2592 0.36335,-0.2784q0.13558,-0.0096 0.26573,0.016q0.30008,0.056 0.235,0.3216q-1.66127,6.76 -3.06765,13.216z" fill="#ffffff"/>
   <path stroke="null" id="svg_14" d="m36.89445,28.45274l0.58569,2.848a0.14823,0.1296 85 0 1 -0.14462,0.1536l-11.71204,0q-0.23138,0 -0.18258,-0.1984l0.70319,-2.8672a0.16631,0.1456 -83.7 0 1 0.16088,-0.1152q3.29542,-0.0016 6.53119,-0.0016c1.21296,0 2.45846,-0.1184 3.68769,-0.0976a0.38323,0.3392 0 0 1 0.37058,0.2784z" fill="#ffffff"/>
   <path stroke="null" id="svg_15" d="m25.32341,32.51834l12.23627,0.0016a0.20427,0.1808 0 0 1 0.20065,0.1456l1.29973,5.856a0.20427,0.1808 0 0 1 -0.19885,0.216l-14.86646,-0.0032a0.20427,0.1808 0 0 1 -0.20065,-0.216l1.32865,-5.8544a0.20427,0.1808 0 0 1 0.20065,-0.1456z" fill="#ffffff"/>
   <path stroke="null" id="svg_16" d="m40.47007,45.97594l-18.0245,0.0032a0.22777,0.2016 0 0 1 -0.22415,-0.24l1.25273,-5.7632a0.22777,0.2016 0 0 1 0.22415,-0.1632l15.47023,-0.0016a0.22777,0.2016 0 0 1 0.22235,0.1616l1.30335,5.7616a0.22777,0.2016 0 0 1 -0.22415,0.2416z" fill="#ffffff"/>
  </g>
 </g>
</svg>